<svg xmlns="http://www.w3.org/2000/svg" xmlns:xlink="http://www.w3.org/1999/xlink" width="414.35422" height="456.38434">
 <defs>
  <linearGradient id="linearGradient2918">
   <stop stop-color="white" id="stop2920" offset="0"/>
   <stop stop-color="white" stop-opacity="0" id="stop2922" offset="1"/>
  </linearGradient>
  <radialGradient gradientTransform="matrix(1.8275, 0, 0, 1.8275, -387.563, -759.271)" r="4.53032" fy="573.99396" fx="388.2652" cy="573.99396" cx="388.2652" gradientUnits="userSpaceOnUse" id="radialGradient2109" xlink:href="#linearGradient2918"/>
  <radialGradient gradientTransform="matrix(2.4705, 0, 0, 2.4705, -1272.47, -1130.34)" r="4.53032" fy="573.99396" fx="388.2652" cy="573.99396" cx="388.2652" gradientUnits="userSpaceOnUse" id="radialGradient2111" xlink:href="#linearGradient2918"/>
  <radialGradient gradientTransform="matrix(1.8275, 0, 0, 1.8275, -367.321, -953.607)" r="4.53032" fy="573.99396" fx="388.2652" cy="573.99396" cx="388.2652" gradientUnits="userSpaceOnUse" id="radialGradient2113" xlink:href="#linearGradient2918"/>
  <radialGradient gradientTransform="matrix(1.8275, 0, 0, 1.8275, -546.92, -1091.59)" r="4.53032" fy="573.99396" fx="388.2652" cy="573.99396" cx="388.2652" gradientUnits="userSpaceOnUse" id="radialGradient2115" xlink:href="#linearGradient2918"/>
  <radialGradient gradientTransform="matrix(1.8275, 0, 0, 1.8275, -702.389, -1214.99)" r="4.53032" fy="573.99396" fx="388.2652" cy="573.99396" cx="388.2652" gradientUnits="userSpaceOnUse" id="radialGradient2117" xlink:href="#linearGradient2918"/>
  <radialGradient gradientTransform="matrix(1.8275, 0, 0, 1.8275, -691.587, -872.313)" r="4.53032" fy="573.99396" fx="388.2652" cy="573.99396" cx="388.2652" gradientUnits="userSpaceOnUse" id="radialGradient2119" xlink:href="#linearGradient2918"/>
  <radialGradient gradientTransform="matrix(1.8275, 0, 0, 1.8275, -550.968, -740.614)" r="4.53032" fy="573.99396" fx="388.2652" cy="573.99396" cx="388.2652" gradientUnits="userSpaceOnUse" id="radialGradient2121" xlink:href="#linearGradient2918"/>
  <radialGradient gradientTransform="matrix(1.8275, 0, 0, 1.8275, -549.834, -894.333)" r="4.53032" fy="573.99396" fx="388.2652" cy="573.99396" cx="388.2652" gradientUnits="userSpaceOnUse" id="radialGradient2123" xlink:href="#linearGradient2918"/>
  <radialGradient gradientTransform="matrix(1.8275, 0, 0, 1.8275, -394.005, -608.125)" r="4.53032" fy="573.99396" fx="388.2652" cy="573.99396" cx="388.2652" gradientUnits="userSpaceOnUse" id="radialGradient2125" xlink:href="#linearGradient2918"/>
  <radialGradient gradientTransform="matrix(1.8275, 0, 0, 1.8275, -510.161, -1305.64)" r="4.53032" fy="573.99396" fx="388.2652" cy="573.99396" cx="388.2652" gradientUnits="userSpaceOnUse" id="radialGradient2127" xlink:href="#linearGradient2918"/>
  <radialGradient gradientTransform="matrix(1.8275, 0, 0, 1.8275, -357.716, -1193.45)" r="4.53032" fy="573.99396" fx="388.2652" cy="573.99396" cx="388.2652" gradientUnits="userSpaceOnUse" id="radialGradient2129" xlink:href="#linearGradient2918"/>
  <radialGradient gradientTransform="matrix(1.8275, 0, 0, 1.8275, -176.755, -1071.89)" r="4.53032" fy="573.99396" fx="388.2652" cy="573.99396" cx="388.2652" gradientUnits="userSpaceOnUse" id="radialGradient2131" xlink:href="#linearGradient2918"/>
  <radialGradient gradientTransform="matrix(1.8275, 0, 0, 1.8275, -331.904, -1384.5)" r="4.53032" fy="573.99396" fx="388.2652" cy="573.99396" cx="388.2652" gradientUnits="userSpaceOnUse" id="radialGradient2133" xlink:href="#linearGradient2918"/>
  <radialGradient gradientTransform="matrix(1.8275, 0, 0, 1.8275, -176.897, -1289.8)" r="4.53032" fy="573.99396" fx="388.2652" cy="573.99396" cx="388.2652" gradientUnits="userSpaceOnUse" id="radialGradient2135" xlink:href="#linearGradient2918"/>
  <radialGradient gradientTransform="matrix(1.8275, 0, 0, 1.8275, -0.365111, -1176.42)" r="4.53032" fy="573.99396" fx="388.2652" cy="573.99396" cx="388.2652" gradientUnits="userSpaceOnUse" id="radialGradient2137" xlink:href="#linearGradient2918"/>
 </defs>
 <metadata id="metadata7">image/svg+xmlRubik18/10/2006h0us3sInkscaperubikh0us3s</metadata>
 <g>
  <title>Layer 1</title>
  <g display="inline" id="layer1">
   <g transform="matrix(0.922978, 0, 0, 0.922978, -129.652, -87.5989)" id="g2905">
    <path opacity="0.458716" fill="#ccc" fill-rule="evenodd" stroke-width="1.5" stroke-miterlimit="4" d="m372.451385,305.00354c-2.256775,0.025879 -4.798096,0.952179 -9.275299,3.231659l-38.471802,17.89859c-4.774292,2.674316 -5.237122,5.89566 -2.454285,9.268921l-8.510345,3.870911l-1.370575,-0.958832c-3.238342,-1.235199 -5.201691,-2.085663 -7.458496,-2.059753c-2.256775,0.025909 -4.798065,0.952179 -9.275299,3.231689l-45.069702,21.733978c-4.325714,2.423035 -5.144775,5.31369 -3.187378,8.345581l-10.295288,4.687744c-2.750854,-1.063141 -4.607422,-1.799286 -6.661621,-1.775665c-2.256775,0.025879 -4.798126,0.952179 -9.27533,3.231659l-51.571976,23.687225c-5.793167,3.244995 -5.265213,7.339539 -0.25499,11.470703l36.750641,31.180481c5.193558,5.47345 10.601959,5.021576 15.586319,3.231689l8.191605,7.173645c-5.238297,3.196991 -4.600739,7.218353 0.254974,11.222107l41.531708,36.827026c5.407227,5.698669 11.042297,4.927979 16.191925,2.947632l9.753448,8.558685c-5.652405,3.232849 -5.130981,7.300354 -0.159393,11.399658l48.703308,42.473633c6.702301,7.063416 13.806305,4.284058 19.825592,1.456055l53.070038,-35.299988c5.535431,-3.001648 5.958801,-7.105225 2.677399,-10.689453l12.207703,-7.777344c5.972961,4.282715 12.129669,1.81781 17.435059,-0.674744l45.037811,-30.505768c5.389526,-2.922485 5.936279,-6.891571 2.932373,-10.405334l11.379028,-7.209167c5.49115,2.913452 11.0849,0.681519 15.936951,-1.598053l36.878113,-25.995575c6.748047,-3.659119 5.894775,-8.873383 0,-12.891235l-49.946472,-32.068298c-3.238342,-1.235199 -5.1698,-2.085693 -7.426575,-2.059753c-1.529541,0.017548 -3.231628,0.409851 -5.546082,1.38504l-9.976501,-6.463409c2.530701,-3.25058 1.00061,-7.013947 -3.506165,-10.085693l-44.43222,-27.203003c-3.238342,-1.235199 -5.16983,-2.085663 -7.426605,-2.059753c-1.135162,0.013031 -2.359375,0.219452 -3.85672,0.745758l-9.179718,-5.966217l0.063751,-0.035492c6.748108,-3.659119 1.591858,-5.073486 -4.302948,-9.09137l-38.057434,-24.326447c-3.238403,-1.235168 -5.201752,-2.085632 -7.458527,-2.059723z" id="path3395"/>
    <path fill="none" fill-opacity="0.75" fill-rule="evenodd" stroke="#818181" stroke-width="7.7" stroke-linecap="round" stroke-miterlimit="4" id="path2898" d="m526.415405,444.720337l-48.732849,29.720917"/>
    <path fill="none" fill-opacity="0.75" fill-rule="evenodd" stroke="#818181" stroke-width="7.7" stroke-linecap="round" stroke-miterlimit="4" d="m471.13736,480.637085l-59.956879,39.261292" id="path2896"/>
    <path fill="none" fill-opacity="0.75" fill-rule="evenodd" stroke="#818181" stroke-width="7.7" stroke-linecap="round" stroke-miterlimit="4" id="path2894" d="m403.793518,524.410583l-52.661285,37.577698"/>
    <path fill="none" fill-opacity="0.75" fill-rule="evenodd" stroke="#818181" stroke-width="7.7" stroke-linecap="round" stroke-miterlimit="4" d="m218.363022,451.162811l-37.88092,-37.039124" id="path2892"/>
    <path fill="none" fill-opacity="0.75" fill-rule="evenodd" stroke="#818181" stroke-width="7.7" stroke-linecap="round" stroke-miterlimit="4" id="path2890" d="m272.799286,505.037872l-46.579498,-44.895874"/>
    <path fill="none" fill-opacity="0.75" fill-rule="evenodd" stroke="#818181" stroke-width="7.7" stroke-linecap="round" stroke-miterlimit="4" d="m333.128174,561.438416l-46.579498,-44.895935" id="path2888"/>
    <path fill="none" fill-opacity="0.75" fill-rule="evenodd" stroke="black" stroke-width="17.046761" stroke-linecap="round" stroke-miterlimit="4" id="path2924" d="m483.9021,418.252441l-63.571289,41.914948"/>
    <path fill="none" fill-opacity="0.75" fill-rule="evenodd" stroke="black" stroke-width="17.046761" stroke-linecap="round" stroke-miterlimit="4" d="m419.083649,462.867737l7.981567,-67.23819" id="path2932"/>
    <path fill="none" fill-opacity="0.75" fill-rule="evenodd" stroke="black" stroke-width="17.046761" stroke-linecap="round" stroke-miterlimit="4" id="path2930" d="m497.652893,345.638672l-62.588074,42.096039"/>
    <path fill="none" fill-opacity="0.75" fill-rule="evenodd" stroke="black" stroke-width="17.046761" stroke-linecap="round" stroke-miterlimit="4" d="m486.343323,403.377075l10.626587,-60.285461" id="path2928"/>
    <path fill="none" fill-opacity="0.75" fill-rule="evenodd" stroke="black" stroke-width="17.046761" stroke-linecap="round" stroke-miterlimit="4" d="m500.430664,337.702148l7.452026,-60.087067" id="path2926"/>
    <path fill="none" fill-opacity="0.75" fill-rule="evenodd" stroke="black" stroke-width="17.046761" stroke-linecap="round" stroke-miterlimit="4" d="m410.946259,511.551727l4.053162,-51.103729" id="path2922"/>
    <path fill="none" fill-opacity="0.75" fill-rule="evenodd" stroke="black" stroke-width="17.046761" stroke-linecap="round" stroke-miterlimit="4" id="path2916" d="m475.484131,467.637939l8.402466,-54.190338"/>
    <path fill="none" fill-opacity="0.75" fill-rule="evenodd" stroke="black" stroke-width="17.046761" stroke-linecap="round" stroke-miterlimit="4" d="m534.634277,382.701172l-51.457886,35.484894" id="path2920"/>
    <path fill="none" fill-opacity="0.75" fill-rule="evenodd" stroke="black" stroke-width="17.046761" stroke-linecap="round" stroke-miterlimit="4" id="path2918" d="m548.021729,315.962555l-12.921326,57.878052"/>
    <path fill="none" fill-opacity="0.75" fill-rule="evenodd" stroke="black" stroke-width="17.046761" stroke-linecap="round" stroke-miterlimit="4" d="m548.567383,313.43277l-53.348145,35.705322" id="path2914"/>
    <path fill="none" fill-opacity="0.75" fill-rule="evenodd" stroke="black" stroke-width="17.046761" stroke-linecap="round" stroke-miterlimit="4" id="path1947" d="m428.904633,396.92688l7.981567,-81.268158"/>
    <path fill="none" fill-opacity="0.75" fill-rule="evenodd" stroke="black" stroke-width="16.700001" stroke-linecap="round" stroke-linejoin="round" stroke-miterlimit="4" d="m513.601074,266.316742l50.163025,-33.222046" id="path2011"/>
    <path fill="none" fill-opacity="0.75" fill-rule="evenodd" stroke="black" stroke-width="16.700001" stroke-linecap="round" stroke-linejoin="round" stroke-miterlimit="4" id="path1999" d="m441.279266,310.463806l69.607574,-42.448303"/>
    <path fill="none" fill-opacity="0.75" fill-rule="evenodd" stroke="black" stroke-width="16.700001" stroke-linecap="round" stroke-linejoin="round" stroke-miterlimit="4" d="m441.080841,223.757004l68.813934,41.282303" id="path2009"/>
    <path fill="none" fill-opacity="0.75" fill-rule="evenodd" stroke="black" stroke-width="16.700001" stroke-linecap="round" stroke-linejoin="round" stroke-miterlimit="4" d="m361.120117,259.669891l64.845673,-35.90065" id="path2007"/>
    <path fill="none" fill-opacity="0.75" fill-rule="evenodd" stroke="black" stroke-width="16.700001" stroke-linecap="round" stroke-linejoin="round" stroke-miterlimit="4" id="path2001" d="m435.815094,218.266663l-62.952515,-37.923645"/>
    <path fill="none" fill-opacity="0.75" fill-rule="evenodd" stroke="black" stroke-width="16.700001" stroke-linecap="round" stroke-linejoin="round" stroke-miterlimit="4" d="m437.498718,219.108459l50.690186,-27.541473" id="path1993"/>
    <path fill="none" fill-opacity="0.75" fill-rule="evenodd" stroke="black" stroke-width="16.700001" stroke-linecap="round" stroke-linejoin="round" stroke-miterlimit="4" id="path1991" d="m370.435455,177.299164l49.567841,-22.210098"/>
    <path fill="none" fill-opacity="0.75" fill-rule="evenodd" stroke="black" stroke-width="16.700001" stroke-linecap="round" stroke-linejoin="round" stroke-miterlimit="4" d="m299.163239,207.323288l61.914185,-25.85788" id="path1989"/>
    <path fill="none" fill-opacity="0.75" fill-rule="evenodd" stroke="black" stroke-width="16.700001" stroke-linecap="round" stroke-linejoin="round" stroke-miterlimit="4" d="m502.27002,196.378922l60.947937,35.400803" id="path1986"/>
    <path fill="none" fill-opacity="0.75" fill-rule="evenodd" stroke="black" stroke-width="16.700001" stroke-linecap="round" stroke-linejoin="round" stroke-miterlimit="4" id="path1984" d="m434.131531,157.376617l56.582825,32.226181"/>
    <path fill="none" fill-opacity="0.75" fill-rule="evenodd" stroke="black" stroke-width="16.700001" stroke-linecap="round" stroke-linejoin="round" stroke-miterlimit="4" id="path1982" d="m317.727448,144.25058l52.565063,-21.38736"/>
    <path fill="none" fill-opacity="0.75" fill-rule="evenodd" stroke="black" stroke-width="16.700001" stroke-linecap="round" stroke-linejoin="round" stroke-miterlimit="4" d="m371.83847,122.301697l48.445404,26.894791" id="path1981"/>
    <path fill="none" fill-opacity="0.75" fill-rule="evenodd" stroke="black" stroke-width="16.700001" stroke-linecap="round" stroke-linejoin="round" stroke-miterlimit="4" id="path1979" d="m315.718597,145.310837l49.581909,25.758301"/>
    <path fill="none" fill-opacity="0.75" fill-rule="evenodd" stroke="black" stroke-width="16.700001" stroke-linecap="round" stroke-linejoin="round" stroke-miterlimit="4" id="path2893" d="m248.103302,174.243973l57.478119,-25.209625"/>
    <path fill="none" fill-opacity="0.75" fill-rule="evenodd" stroke="black" stroke-width="16.700001" stroke-linecap="round" stroke-linejoin="round" stroke-miterlimit="4" d="m167.571289,208.477097l68.1409,-28.436508" id="path2891"/>
    <path fill="none" fill-opacity="0.75" fill-rule="evenodd" stroke="black" stroke-width="16.700001" stroke-linecap="round" stroke-linejoin="round" stroke-miterlimit="4" d="m372.844086,264.388702l61.700958,45.808746" id="path2877"/>
    <path fill="none" fill-opacity="0.75" fill-rule="evenodd" stroke="black" stroke-width="16.700001" stroke-linecap="round" stroke-linejoin="round" stroke-miterlimit="4" id="path2875" d="m303.200867,217.761475l51.780273,41.046814"/>
    <path fill="none" fill-opacity="0.75" fill-rule="evenodd" stroke="black" stroke-width="16.700001" stroke-linecap="round" stroke-linejoin="round" stroke-miterlimit="4" d="m247.813538,177.299164l43.675232,35.873978" id="path2873"/>
    <path fill="none" fill-opacity="0.75" fill-rule="evenodd" stroke="black" stroke-width="16.700001" stroke-linecap="round" stroke-linejoin="round" stroke-miterlimit="4" id="path2853" d="m342.770599,511.851654l68.245453,-42.295532"/>
    <path fill="none" fill-opacity="0.75" fill-rule="evenodd" stroke="black" stroke-width="16.700001" stroke-linecap="round" stroke-linejoin="round" stroke-miterlimit="4" d="m351.879578,442.30127l66.179657,-42.295532" id="path2848"/>
    <path fill="none" fill-opacity="0.75" fill-rule="evenodd" stroke="black" stroke-width="16.700001" stroke-linecap="round" stroke-linejoin="round" stroke-miterlimit="4" id="path1961" d="m288.829285,457.26416l50.419434,46.917755"/>
    <path fill="none" fill-opacity="0.75" fill-rule="evenodd" stroke="black" stroke-width="16.700001" stroke-linecap="round" stroke-linejoin="round" stroke-miterlimit="4" d="m222.08432,398.885101l50.419434,46.917755" id="path1959"/>
    <path fill="none" fill-opacity="0.75" fill-rule="evenodd" stroke="black" stroke-width="17.046761" stroke-linecap="round" stroke-miterlimit="4" d="m279.04895,502.633331l-1.570374,-58.085846" id="path1953"/>
    <path fill="none" fill-opacity="0.75" fill-rule="evenodd" stroke="black" stroke-width="17.046761" stroke-linecap="round" stroke-miterlimit="4" d="m222.372665,446.249146l-3.907547,-45.231415" id="path2880"/>
    <path fill="none" fill-opacity="0.75" fill-rule="evenodd" stroke="black" stroke-width="16.700001" stroke-linecap="round" stroke-linejoin="round" stroke-miterlimit="4" d="m178.262451,355.939667l39.317871,38.445526" id="path2889"/>
    <path fill="none" fill-opacity="0.75" fill-rule="evenodd" stroke="black" stroke-width="16.700001" stroke-linecap="round" stroke-linejoin="round" stroke-miterlimit="4" id="path2850" d="m227.159729,342.473663l51.062927,43.061157"/>
    <path fill="none" fill-opacity="0.75" fill-rule="evenodd" stroke="black" stroke-width="17.046761" stroke-linecap="round" stroke-miterlimit="4" d="m279.651031,447.548676l-1.278229,-55.748627" id="path2852"/>
    <path fill="none" fill-opacity="0.75" fill-rule="evenodd" stroke="black" stroke-width="16.700001" stroke-linecap="round" stroke-linejoin="round" stroke-miterlimit="4" id="path2837" d="m287.743835,394.877228l59.475922,48.086365"/>
    <path fill="none" fill-opacity="0.75" fill-rule="evenodd" stroke="black" stroke-width="17.046761" stroke-linecap="round" stroke-miterlimit="4" d="m343.973785,495.920929l1.351105,-48.152832" id="path2839"/>
    <path opacity="0.353211" fill="url(#radialGradient2109)" fill-rule="nonzero" stroke-width="16.700001" stroke-linecap="round" stroke-linejoin="round" marker-start="none" marker-mid="none" marker-end="none" stroke-miterlimit="4" stroke-dashoffset="43.68" d="m353.097534,442.331512a6.124313,6.124313 0 1 1 -12.248627,0a6.124313,6.124313 0 1 1 12.248627,0z" id="path2841"/>
    <g id="g2828">
     <path fill="none" fill-opacity="0.75" fill-rule="evenodd" stroke="black" stroke-width="16.700001" stroke-linecap="round" stroke-linejoin="round" stroke-miterlimit="4" id="path2820" d="m170.95874,286.408813l49.835129,49.546997l65.177902,-32.508545"/>
     <path fill="none" fill-opacity="0.75" fill-rule="evenodd" stroke="black" stroke-width="17.046761" stroke-linecap="round" stroke-miterlimit="4" d="m219.743286,392.494141l-1.278229,-62.468018" id="path2822"/>
     <path opacity="0.353211" fill="url(#radialGradient2111)" fill-rule="nonzero" stroke-width="16.700001" stroke-linecap="round" stroke-linejoin="round" marker-start="none" marker-mid="none" marker-end="none" stroke-miterlimit="4" stroke-dashoffset="43.68" d="m224.192139,334.084503a6.124313,6.124313 0 1 1 -12.248627,0a6.124313,6.124313 0 1 1 12.248627,0z" id="path2824"/>
    </g>
    <path fill="none" fill-opacity="0.75" fill-rule="evenodd" stroke="black" stroke-width="17.046761" stroke-linecap="round" stroke-miterlimit="4" id="path3809" d="m277.596802,374.894806l-0.693939,-64.513062"/>
    <path fill="none" fill-opacity="0.75" fill-rule="evenodd" stroke="black" stroke-width="16.700001" stroke-linecap="round" stroke-linejoin="round" stroke-miterlimit="4" id="path3803" d="m166.73555,211.916138l46.621521,37.276978l67.656845,-31.269196"/>
    <path fill="none" fill-opacity="0.75" fill-rule="evenodd" stroke="black" stroke-width="17.046761" stroke-linecap="round" stroke-miterlimit="4" d="m415.311157,384.954559l5.712585,-61.455139" id="path3033"/>
    <path fill="none" fill-opacity="0.75" fill-rule="evenodd" stroke="black" stroke-width="17.062401" stroke-linecap="round" stroke-miterlimit="4" d="m288.143677,377.719299l0.269409,-65.42215" id="path3035"/>
    <path fill="none" fill-opacity="0.75" fill-rule="evenodd" stroke="black" stroke-width="16.700001" stroke-linecap="round" stroke-linejoin="round" stroke-miterlimit="4" d="m287.642059,380.738525l62.359161,50.40094l64.02179,-42.664063" id="path3037"/>
    <path fill="none" fill-opacity="0.75" fill-rule="evenodd" stroke="black" stroke-width="17.046761" stroke-linecap="round" stroke-miterlimit="4" id="path3039" d="m349.446533,426.131866l3.980377,-61.591583"/>
    <path fill="#ced7fe" fill-rule="evenodd" stroke="#ced7fe" stroke-width="1px" id="path3041" d="m297.556366,308.248962l47.729706,37.375671c6.571106,6.215546 13.543976,3.75119 19.445435,1.262695l52.022858,-31.062195c6.615997,-3.219879 5.779449,-7.828705 0,-11.364227l-50.507629,-34.597717c-6.349976,-2.173828 -7.635834,-3.001556 -16.414978,1.010132l-52.022858,27.274139c-5.679779,2.855469 -5.164703,6.466248 -0.252533,10.101501z"/>
    <path fill="none" fill-opacity="0.75" fill-rule="evenodd" stroke="black" stroke-width="16.700001" stroke-linecap="round" stroke-linejoin="round" stroke-miterlimit="4" id="path3043" d="m289.869751,311.599304l65.956848,48.732941l65.841705,-39.298889"/>
    <path opacity="0.353211" fill="url(#radialGradient2113)" fill-rule="nonzero" stroke-width="16.700001" stroke-linecap="round" stroke-linejoin="round" marker-start="none" marker-mid="none" marker-end="none" stroke-miterlimit="4" stroke-dashoffset="43.68" d="m361.704529,359.700531a6.124313,6.124313 0 1 1 -12.248627,0a6.124313,6.124313 0 1 1 12.248627,0z" id="path3045"/>
    <path fill="none" fill-opacity="0.75" fill-rule="evenodd" stroke="black" stroke-width="16.700001" stroke-linecap="round" stroke-linejoin="round" stroke-miterlimit="4" d="m421.193726,318.569153l-60.261871,-43.987122l-71.062103,35.502228" id="path3049"/>
    <path fill="none" fill-opacity="0.75" fill-rule="evenodd" stroke="black" stroke-width="17.046761" stroke-linecap="round" stroke-miterlimit="4" d="m214.785431,317.926331l-1.278229,-62.468018" id="path3777"/>
    <path fill="none" fill-opacity="0.75" fill-rule="evenodd" stroke="black" stroke-width="16.700001" stroke-linecap="round" stroke-linejoin="round" stroke-miterlimit="4" d="m224.660522,259.128418l54.801605,42.535583l72.039063,-36.819946" id="path3781"/>
    <path opacity="0.353211" fill="url(#radialGradient2115)" fill-rule="nonzero" stroke-width="16.700001" stroke-linecap="round" stroke-linejoin="round" marker-start="none" marker-mid="none" marker-end="none" stroke-miterlimit="4" stroke-dashoffset="43.68" id="path3783" d="m285.339539,301.032532a6.124313,6.124313 0 1 1 -12.248627,0a6.124313,6.124313 0 1 1 12.248627,0z"/>
    <path fill="white" fill-rule="evenodd" stroke="#c3c3c3" stroke-width="1.5" stroke-miterlimit="4" d="m297.556366,308.248962l47.729706,37.375671c6.571106,6.215546 13.543976,3.75119 19.445435,1.262695l52.022858,-31.062195c6.615997,-3.219879 5.779449,-7.828705 0,-11.364227l-50.507629,-34.597717c-6.349976,-2.173828 -7.635834,-3.001556 -16.414978,1.010132l-52.022858,27.274139c-5.679779,2.855469 -5.164703,6.466248 -0.252533,10.101501z" id="path3051"/>
    <path opacity="0.353211" fill="url(#radialGradient2117)" fill-rule="nonzero" stroke-width="16.700001" stroke-linecap="round" stroke-linejoin="round" marker-start="none" marker-mid="none" marker-end="none" stroke-miterlimit="4" stroke-dashoffset="43.68" d="m219.234512,248.561508a6.124313,6.124313 0 1 1 -12.248627,0a6.124313,6.124313 0 1 1 12.248627,0z" id="path3805"/>
    <path fill="white" fill-rule="evenodd" stroke="#c3c3c3" stroke-width="1.5" stroke-miterlimit="4" d="m171.933624,209.211517l36.043884,27.442688c6.571091,6.215546 13.543976,3.75119 19.445435,1.262695l48.224945,-23.4664c6.616028,-3.219864 5.779449,-7.82869 0,-11.364227l-36.484619,-25.833344c-6.349976,-2.173813 -7.635834,-3.001556 -16.414978,1.010147l-50.562119,20.846924c-5.679794,2.855469 -5.164719,6.466248 -0.252548,10.101517z" id="path3765"/>
    <path fill="red" fill-rule="evenodd" stroke="#7e1d0b" stroke-width="1.5" stroke-miterlimit="4" id="path3769" d="m200.583328,249.166931c3.940277,3.148132 6.103561,6.608978 5.164703,15.099274l0.853546,48.232239c-1.3853,4.354248 -2.127884,3.822205 -4.545013,2.761932l-34.250397,-34.397491c-2.917358,-1.046448 -4.987045,-4.020355 -4.820389,-12.079437l-4.475891,-53.636261l42.073441,34.019745z"/>
    <path fill="white" fill-rule="evenodd" stroke="#c3c3c3" stroke-width="1.5" stroke-miterlimit="4" id="path3763" d="m231.531372,255.66272l40.718231,32.409149c6.571106,6.215576 13.543976,3.751221 19.445435,1.262695l49.685669,-26.679993c6.616028,-3.219849 5.779449,-7.828674 0,-11.364227l-41.743256,-31.384109c-6.349945,-2.173828 -7.635803,-3.001556 -16.414948,1.010147l-51.438568,24.644806c-5.67981,2.855499 -5.164734,6.466248 -0.252563,10.101532z"/>
    <path fill="red" fill-rule="evenodd" stroke="#7e1d0b" stroke-width="1.5" stroke-miterlimit="4" d="m171.341324,292.585388l36.288956,31.022522c3.940262,3.148132 6.103561,6.609009 5.164688,15.099304l2.299591,43.274353c-1.385284,4.354248 -3.780502,3.409027 -6.197632,2.348785l-35.283295,-34.190918c-2.917358,-1.046448 -4.98703,-4.020386 -4.820389,-12.079437l-3.649551,-41.448151c0.070206,-4.176392 0.900391,-6.967804 6.197632,-4.026459z" id="path2818"/>
    <path opacity="0.353211" fill="url(#radialGradient2119)" fill-rule="nonzero" stroke-width="16.700001" stroke-linecap="round" stroke-linejoin="round" marker-start="none" marker-mid="none" marker-end="none" stroke-miterlimit="4" stroke-dashoffset="43.68" id="path1949" d="m223.82753,394.26651a6.124313,6.124313 0 1 1 -12.248627,0a6.124313,6.124313 0 1 1 12.248627,0z"/>
    <path fill="red" fill-rule="evenodd" stroke="#7e1d0b" stroke-width="1.5" stroke-miterlimit="4" id="path2866" d="m177.745255,362.408844l33.810013,31.43573c3.940262,3.148132 6.103561,6.608978 5.164703,15.099274l2.093002,35.424377c-1.385284,4.354248 -3.780502,3.409027 -6.197632,2.348785l-31.771469,-32.744873c-2.917358,-1.046448 -6.019928,-4.433533 -5.853271,-12.492584l-3.442978,-35.04422c0.070206,-4.176392 0.900391,-6.967804 6.197632,-4.026489z"/>
    <path opacity="0.353211" fill="url(#radialGradient2121)" fill-rule="nonzero" stroke-width="16.700001" stroke-linecap="round" stroke-linejoin="round" marker-start="none" marker-mid="none" marker-end="none" stroke-miterlimit="4" stroke-dashoffset="43.68" id="path1955" d="m283.61853,450.264526a6.124313,6.124313 0 1 1 -12.248627,0a6.124313,6.124313 0 1 1 12.248627,0z"/>
    <path opacity="0.353211" fill="url(#radialGradient2123)" fill-rule="nonzero" stroke-width="16.700001" stroke-linecap="round" stroke-linejoin="round" marker-start="none" marker-mid="none" marker-end="none" stroke-miterlimit="4" stroke-dashoffset="43.68" d="m284.100525,384.903534a6.124313,6.124313 0 1 1 -12.248627,0a6.124313,6.124313 0 1 1 12.248627,0z" id="path2854"/>
    <path fill="none" fill-opacity="0.75" fill-rule="evenodd" stroke="black" stroke-width="17.046761" stroke-linecap="round" stroke-miterlimit="4" d="m339.890106,557.140198l0.787567,-51.312775" id="path1963"/>
    <path opacity="0.353211" fill="url(#radialGradient2125)" fill-rule="nonzero" stroke-width="16.700001" stroke-linecap="round" stroke-linejoin="round" marker-start="none" marker-mid="none" marker-end="none" stroke-miterlimit="4" stroke-dashoffset="43.68" id="path1965" d="m350.358521,506.598511a6.124313,6.124313 0 1 1 -12.248627,0a6.124313,6.124313 0 1 1 12.248627,0z"/>
    <path fill="white" fill-rule="evenodd" stroke="#c3c3c3" stroke-width="1.5" stroke-miterlimit="4" id="path2860" d="m382.681671,263.724548l46.326721,34.008453c6.571106,6.215546 13.543976,3.75119 19.445435,1.262695l44.166107,-26.85321c6.615967,-3.219849 5.779419,-7.828674 0,-11.364227l-49.385254,-31.791718c-6.349976,-2.173828 -7.635834,-3.001572 -16.414978,1.010147l-43.885468,23.626328c-5.67981,2.855469 -5.164734,6.466248 -0.252563,10.101532z"/>
    <path fill="white" fill-rule="evenodd" stroke="#c3c3c3" stroke-width="1.5" stroke-miterlimit="4" d="m454.515137,225.28241l48.290894,28.677094c6.571106,6.215546 13.543945,3.75119 19.445435,1.262695l36.158997,-22.85675c6.616028,-3.219849 5.77948,-7.828674 0,-11.364212l-48.954346,-28.212021c-6.349976,-2.173828 -7.635803,-3.001556 -16.414978,1.010147l-38.273468,21.381531c-5.67981,2.855484 -5.164703,6.466248 -0.252533,10.101517z" id="path2863"/>
    <path fill="white" fill-rule="evenodd" stroke="#c3c3c3" stroke-width="1.5" stroke-miterlimit="4" d="m311.128845,216.864441l41.275909,29.51886c6.571106,6.215576 13.543976,3.75119 19.445465,1.262695l43.604858,-22.924805c6.616028,-3.219864 5.779449,-7.82869 0,-11.364227l-42.370239,-27.302139c-6.349976,-2.173828 -7.635834,-3.001556 -16.414978,1.010147l-45.288483,19.697937c-5.679779,2.855484 -5.164703,6.466263 -0.252533,10.101532z" id="path2865"/>
    <path fill="white" fill-rule="evenodd" stroke="#c3c3c3" stroke-width="1.5" stroke-miterlimit="4" id="path2867" d="m251.361176,175.616318l36.505737,23.065094c6.571106,6.215546 13.543976,3.75119 19.445435,1.26268l43.32428,-18.435211c6.615997,-3.219864 5.779449,-7.828674 0,-11.364212l-38.441864,-24.776749c-6.349945,-2.173828 -7.635803,-3.001572 -16.414978,1.010147l-44.166077,19.136734c-5.679779,2.855484 -5.164703,6.466248 -0.252533,10.101517z"/>
    <path fill="white" fill-rule="evenodd" stroke="#c3c3c3" stroke-width="1.5" stroke-miterlimit="4" d="m324.036407,144.750397l36.505737,20.820282c6.571106,6.215561 13.543976,3.75119 19.445435,1.26268l39.957092,-19.557602c6.616028,-3.219849 1.570465,-4.461487 -4.208984,-7.997025l-37.319458,-21.409561c-6.349976,-2.173813 -7.635834,-3.001556 -16.414978,1.010147l-37.712311,15.769562c-5.679779,2.855469 -5.164703,6.466248 -0.252533,10.101517z" id="path2869"/>
    <path fill="white" fill-rule="evenodd" stroke="#c3c3c3" stroke-width="1.5" stroke-miterlimit="4" id="path2871" d="m385.732391,181.348373l41.871185,24.756943c6.571075,6.215561 13.543976,3.751205 19.445435,1.262695l36.461975,-18.361298c6.616028,-3.219864 5.779419,-7.828674 0,-11.364227l-43.56073,-23.929108c-6.349976,-2.173813 -7.635834,-3.001556 -16.414978,1.010162l-37.550323,16.523315c-5.67981,2.855484 -5.164734,6.466248 -0.252563,10.101517z"/>
    <path opacity="0.353211" fill="url(#radialGradient2127)" fill-rule="nonzero" stroke-width="16.700001" stroke-linecap="round" stroke-linejoin="round" marker-start="none" marker-mid="none" marker-end="none" stroke-miterlimit="4" stroke-dashoffset="43.68" id="path2879" d="m300.969543,210.017502a6.124313,6.124313 0 1 1 -12.248627,0a6.124313,6.124313 0 1 1 12.248627,0z"/>
    <path opacity="0.353211" fill="url(#radialGradient2129)" fill-rule="nonzero" stroke-width="16.700001" stroke-linecap="round" stroke-linejoin="round" marker-start="none" marker-mid="none" marker-end="none" stroke-miterlimit="4" stroke-dashoffset="43.68" d="m365.788544,257.719513a6.124313,6.124313 0 1 1 -12.248627,0a6.124313,6.124313 0 1 1 12.248627,0z" id="path2883"/>
    <path opacity="0.353211" fill="url(#radialGradient2131)" fill-rule="nonzero" stroke-width="16.700001" stroke-linecap="round" stroke-linejoin="round" marker-start="none" marker-mid="none" marker-end="none" stroke-miterlimit="4" stroke-dashoffset="43.68" id="path2887" d="m442.732727,309.407532a6.124313,6.124313 0 1 1 -12.248627,0a6.124313,6.124313 0 1 1 12.248627,0z"/>
    <path opacity="0.353211" fill="url(#radialGradient2133)" fill-rule="nonzero" stroke-width="16.700001" stroke-linecap="round" stroke-linejoin="round" marker-start="none" marker-mid="none" marker-end="none" stroke-miterlimit="4" stroke-dashoffset="43.68" d="m376.763519,176.485519a6.124313,6.124313 0 1 1 -12.248627,0a6.124313,6.124313 0 1 1 12.248627,0z" id="path1995"/>
    <path opacity="0.353211" fill="url(#radialGradient2135)" fill-rule="nonzero" stroke-width="16.700001" stroke-linecap="round" stroke-linejoin="round" marker-start="none" marker-mid="none" marker-end="none" stroke-miterlimit="4" stroke-dashoffset="43.68" d="m442.672211,216.751511a6.124313,6.124313 0 1 1 -12.248596,0a6.124313,6.124313 0 1 1 12.248596,0z" id="path2003"/>
    <path opacity="0.353211" fill="url(#radialGradient2137)" fill-rule="nonzero" stroke-width="16.700001" stroke-linecap="round" stroke-linejoin="round" marker-start="none" marker-mid="none" marker-end="none" stroke-miterlimit="4" stroke-dashoffset="43.68" d="m517.733093,264.962524a6.124313,6.124313 0 1 1 -12.248596,0a6.124313,6.124313 0 1 1 12.248596,0z" id="path2013"/>
    <path fill="#fc0" fill-rule="evenodd" stroke="#585806" stroke-width="1.5" stroke-miterlimit="4" id="path2910" d="m479.73996,467.521179l7.347382,-40.470764c0.869446,-4.567871 3.995911,-8.650909 7.11792,-10.125916l39.590576,-27.241577c2.396301,-1.258392 5.475342,-2.512054 5.457092,3.857483l-8.752747,42.64151c-0.304199,1.696716 -1.135864,4.340759 -3.796204,6.75061l-41.981506,27.240692c-3.96405,1.882965 -4.965454,-0.309479 -4.982513,-2.652039z"/>
    <path fill="#fc0" fill-rule="evenodd" stroke="#585806" stroke-width="1.5" stroke-miterlimit="4" id="path2904" d="m504.449524,332.329803l6.854248,-50.307556c0.869446,-4.567871 3.995911,-8.650909 7.11792,-10.125916l45.719788,-30.94751c2.396301,-1.258362 5.475342,-2.512024 5.457031,3.857483l-10.456238,53.155762c-0.304199,1.696716 -1.135864,4.340729 -3.796204,6.75061l-45.914063,30.269135c-3.963989,1.882996 -4.965393,-0.309448 -4.982483,-2.652008z"/>
    <path fill="#fc0" fill-rule="evenodd" stroke="#585806" stroke-width="1.5" stroke-miterlimit="4" d="m490.676758,406.54834l6.645935,-45.661865c0.869385,-4.567841 3.995911,-8.650879 7.11792,-10.125916l43.238342,-27.943085c2.396301,-1.258362 5.475342,-2.512054 5.457092,3.857483l-9.033325,46.289337c-0.304199,1.696716 -1.135864,4.340729 -3.796204,6.75058l-44.647217,29.485504c-3.96405,1.882965 -4.965454,-0.309479 -4.982544,-2.652039z" id="path2908"/>
    <path fill="#fc0" fill-rule="evenodd" stroke="#585806" stroke-width="1.5" stroke-miterlimit="4" id="path2855" d="m347.250397,558.086365l1.523956,-39.953247c0.869415,-4.56781 3.99588,-8.650909 7.117889,-10.125885l50.007263,-33.153503c2.396301,-1.258392 5.475342,-2.512054 5.457062,3.857483l-4.743195,41.785553c-0.304199,1.696716 -1.135864,4.340759 -3.796204,6.75061l-50.584259,33.491028c-3.96402,1.882935 -4.965424,-0.309448 -4.982513,-2.652039z"/>
    <path fill="#fc0" fill-rule="evenodd" stroke="#585806" stroke-width="1.5" stroke-miterlimit="4" id="path3053" d="m356.779724,428.614868l3.084442,-56.656799c0.869385,-4.567871 3.99588,-8.650909 7.117889,-10.125916l55.045197,-34.717346c2.396301,-1.258392 5.475342,-2.512054 5.457062,3.857452l-5.694305,55.933563c-0.304199,1.696716 -1.135895,4.340729 -3.796234,6.75058l-56.231506,37.610474c-3.96405,1.882996 -4.965454,-0.309448 -4.982544,-2.652008z"/>
    <path fill="#fc0" fill-rule="evenodd" stroke="#585806" stroke-width="1.5" stroke-miterlimit="4" d="m351.615265,498.438324l1.431793,-44.675232c0.869415,-4.567871 3.995911,-8.650909 7.11792,-10.125916l53.186005,-36.989716c2.396301,-1.258362 5.475342,-2.512054 5.457062,3.857483l-4.041687,47.257233c-0.30423,1.696716 -1.135895,4.340759 -3.796234,6.75061l-54.372314,36.577576c-3.96405,1.882996 -4.965454,-0.309448 -4.982544,-2.652039z" id="path1958"/>
    <path fill="#fc0" fill-rule="evenodd" stroke="#585806" stroke-width="1.5" stroke-miterlimit="4" d="m415.165741,511.309052l5.523529,-40.190155c0.869385,-4.567841 3.99588,-8.650879 7.117889,-10.125916l45.342865,-30.749054c2.396301,-1.258392 5.475342,-2.512054 5.457062,3.857452l-7.770599,41.659454c-0.304199,1.696716 -1.135895,4.340729 -3.796234,6.75058l-46.891968,31.449707c-3.96405,1.882996 -4.965454,-0.309448 -4.982544,-2.652069z" id="path2912"/>
    <path fill="#fc0" fill-rule="evenodd" stroke="#585806" stroke-width="1.5" stroke-miterlimit="4" d="m435.599945,377.36972l6.655884,-52.093292c0.869415,-4.567841 3.995911,-8.650879 7.11792,-10.125885l48.894379,-30.749084c2.396301,-1.258392 5.475342,-2.512054 5.457031,3.857452l-8.273682,51.568451c-0.304199,1.696716 -1.135864,4.340729 -3.796204,6.75061l-51.072784,33.443787c-3.96405,1.882965 -4.965454,-0.309479 -4.982544,-2.652039z" id="path2017"/>
    <path fill="#fc0" fill-rule="evenodd" stroke="#585806" stroke-width="1.5" stroke-miterlimit="4" id="path2906" d="m424.290375,447.459747l5.663788,-45.942474c0.869415,-4.567841 3.995911,-8.650879 7.11792,-10.125885l47.307068,-30.749115c2.396301,-1.258362 5.475342,-2.512024 5.457031,3.857483l-8.472046,48.393829c-0.30423,1.696716 -1.135925,4.340729 -3.796265,6.75061l-48.294983,30.46756c-3.96402,1.882996 -4.965454,-0.309448 -4.982513,-2.652008z"/>
    <path fill="red" fill-rule="evenodd" stroke="#7e1d0b" stroke-width="1.5" stroke-miterlimit="4" d="m286.718018,396.16275l46.000641,39.542419c3.940277,3.148132 6.103546,6.608978 5.164703,15.099274l-1.583862,43.203461c-1.385315,4.354248 -3.780518,3.409058 -6.197662,2.348755l-44.416779,-41.40036c-2.917358,-1.046448 -4.98703,-4.020386 -4.820374,-12.079437l-0.34433,-42.687622c0.070221,-4.176392 0.900421,-6.967804 6.197662,-4.026489z" id="path1927"/>
    <path fill="red" fill-rule="evenodd" stroke="#7e1d0b" stroke-width="1.5" stroke-miterlimit="4" id="path3047" d="m286.698669,318.683228l54.05719,38.922668c3.940277,3.148132 6.103577,6.608978 5.164703,15.099274l-2.410187,51.673187c-1.385284,4.354248 -3.780518,3.409027 -6.197632,2.348755l-51.647034,-41.606964c-2.917358,-1.046448 -4.98703,-4.020355 -4.820374,-12.079437l-0.34433,-50.330994c0.070221,-4.176392 0.900421,-6.967834 6.197662,-4.026489z"/>
    <path fill="red" fill-rule="evenodd" stroke="#7e1d0b" stroke-width="1.5" stroke-miterlimit="4" id="path2862" d="m286.853699,465.455322l42.901978,39.129242c3.940247,3.148132 6.103546,6.609009 5.164703,15.099335l-0.964142,35.766602c-1.385284,4.354248 -3.780518,3.409058 -6.197632,2.348816l-41.318115,-40.987244c-2.917358,-1.046448 -4.98703,-4.020386 -4.820374,-12.079498l-0.96405,-35.250763c0.070221,-4.176392 0.900391,-6.967804 6.197632,-4.026489z"/>
    <path fill="red" fill-rule="evenodd" stroke="#7e1d0b" stroke-width="1.5" stroke-miterlimit="4" d="m220.719635,263.441223l45.584991,38.046234c3.940247,3.148132 6.103546,6.608978 5.164703,15.099274l1.67984,50.504608c-1.385284,4.354248 -3.780518,3.409027 -6.197632,2.348785l-47.264847,-39.561951c-2.917358,-1.046448 -4.98703,-4.020386 -4.820389,-12.079437l-0.344315,-50.331024c0.070221,-4.176392 0.900406,-6.967804 6.197647,-4.026489z" id="path3767"/>
    <path fill="red" fill-rule="evenodd" stroke="#7e1d0b" stroke-width="1.5" stroke-miterlimit="4" d="m228.156464,411.092987l39.387604,36.393585c3.940277,3.148132 6.103577,6.608978 5.164703,15.099304l0.853546,33.978302c-1.385284,4.354248 -3.780518,3.409058 -6.197632,2.348816l-38.175385,-36.669891c-2.917358,-1.046417 -4.98703,-4.020355 -4.820389,-12.079437l-2.410095,-35.044189c0.070221,-4.176392 0.900406,-6.967834 6.197647,-4.026489z" id="path2864"/>
    <path fill="red" fill-rule="evenodd" stroke="#7e1d0b" stroke-width="1.5" stroke-miterlimit="4" id="path2816" d="m225.470947,342.095825l41.246826,36.600159c3.940247,3.148132 6.103546,6.608978 5.164703,15.099304l0.646942,43.6875c-1.385284,4.354248 -3.780518,3.409027 -6.197632,2.348755l-40.034576,-36.876404c-2.917358,-1.046448 -4.987045,-4.020386 -4.820389,-12.079468l-2.203522,-44.753387c0.070221,-4.176392 0.900391,-6.967804 6.197647,-4.026459z"/>
    <path fill="none" fill-opacity="0.75" fill-rule="evenodd" stroke="#303030" stroke-width="3.544" stroke-linecap="round" stroke-miterlimit="4" d="m286.161591,393.064789l55.28299,45.884308" id="path7601"/>
    <path fill="none" fill-opacity="0.75" fill-rule="evenodd" stroke="#303030" stroke-width="3.544" stroke-linecap="round" stroke-miterlimit="4" id="path7605" d="m282.180695,459.602905l55.28299,45.884308"/>
    <path fill="none" fill-opacity="0.75" fill-rule="evenodd" stroke="#303030" stroke-width="3.544" stroke-linecap="round" stroke-miterlimit="4" id="path7619" d="m418.426422,398.426575l-66.810791,43.739563"/>
    <path fill="none" fill-opacity="0.75" fill-rule="evenodd" stroke="#303030" stroke-width="3.544" stroke-linecap="round" stroke-miterlimit="4" d="m413.868927,466.521057l-63.057587,41.058685" id="path7623"/>
   </g>
  </g>
 </g>
</svg>