<?xml version="1.0" encoding="utf-8"?>
<svg version="1.1" style="padding:10px" width="520" height="660" xmlns="http://www.w3.org/2000/svg">
  <g style="stroke-width:0.1;stroke-linejoin:round;opacity:1" transform="matrix(348.189423, 0, 0, 348.189423, 250, 250)">
    <polygon fill="#000000" stroke="#000000" points="-0.52222222222222,-0.52222222222222 0.52222222222222,-0.52222222222222 0.52222222222222,0.52222222222222 -0.52222222222222,0.52222222222222"/>
  </g>
  <g id="top-row" transform="matrix(348.189423, 0, 0, 348.189423, 250, 250)">
    <polygon id="top-1" fill="DarkSlateGray" stroke="#000000" points="-0.528 -0.528 -0.213 -0.528 -0.213 -0.213 -0.528 -0.213" style="opacity: 1; stroke-opacity: 0.5; stroke-width: 0; stroke-linejoin: round;"/>
    <polygon fill="yellow" stroke="#000000" points="-0.157 -0.528 0.157 -0.528 0.157 -0.213 -0.157 -0.213" style="opacity: 1; stroke-opacity: 0.5; stroke-width: 0; stroke-linejoin: round;" id="top-2"/>
    <polygon fill="green" stroke="#000000" points="0.213 -0.528 0.528 -0.528 0.528 -0.213 0.213 -0.213" style="opacity: 1; stroke-opacity: 0.5; stroke-width: 0; stroke-linejoin: round;" id="top-3"/>
  </g>
  <g id="middle-row" transform="matrix(348.189423, 0, 0, 348.189423, 250, 250)">
    <polygon id="middle-1" fill="yellow" stroke="#000000" points="-0.528 -0.157 -0.213 -0.157 -0.213 0.157 -0.528 0.157" style="opacity: 1; stroke-opacity: 0.5; stroke-width: 0; stroke-linejoin: round;"/>
    <polygon fill="yellow" stroke="#000000" points="-0.157 -0.157 0.157 -0.157 0.157 0.157 -0.157 0.157" style="opacity: 1; stroke-opacity: 0.5; stroke-width: 0; stroke-linejoin: round;" id="middle-2"/>
    <polygon id="middle-3" fill="yellow" stroke="#000000" points="0.213 -0.157 0.528 -0.157 0.528 0.157 0.213 0.157" style="opacity: 1; stroke-opacity: 0.5; stroke-width: 0; stroke-linejoin: round;"/>
  </g>
  <g id="bottom-row" transform="matrix(348.189423, 0, 0, 348.189423, 250, 250)">
    <polygon id="bottom-1" fill="orange" stroke="#000000" points="-0.528 0.213 -0.213 0.213 -0.213 0.528 -0.528 0.528" style="opacity: 1; stroke-opacity: 0.5; stroke-width: 0; stroke-linejoin: round;"/>
    <polygon id="bottom-2" fill="yellow" stroke="#000000" points="-0.157 0.213 0.157 0.213 0.157 0.528 -0.157 0.528" style="opacity: 1; stroke-opacity: 0.5; stroke-width: 0; stroke-linejoin: round;"/>
    <polygon id="bottom-3" fill="blue" stroke="#000000" points="0.213 0.213 0.528 0.213 0.528 0.528 0.213 0.528" style="opacity: 1; stroke-opacity: 0.5; stroke-width: 0; stroke-linejoin: round;"/>
  </g>
  <g id="front-row" style="opacity: 1; stroke-opacity: 1; stroke-width: 0.02; stroke-linejoin: round;" transform="matrix(348.189423, 0, 0, 348.189423, 250, 250)">
    <polygon id="front-1" fill="yellow" stroke="#000000" points="-0.544 0.554 -0.196 0.554 -0.184 0.718 -0.508 0.718"/>
    <polygon id="front-2" fill="orange" stroke="#000000" points="-0.174 0.554 0.174 0.554 0.162 0.718 -0.162 0.718"/>
    <polygon id="front-3" fill="red" stroke="#000000" points="0.195 0.554 0.543 0.554 0.507 0.718 0.183 0.718"/>
  </g>
  <g id="left-column" style="opacity: 1; stroke-opacity: 1; stroke-width: 0.02; stroke-linejoin: round;" transform="matrix(348.189423, 0, 0, 348.189423, 250, 250)">
    <polygon id="left-1" fill="green" stroke="#000000" points="-0.554 -0.544 -0.554 -0.196 -0.718 -0.184 -0.718 -0.508"/>
    <polygon id="left-2" fill="blue" stroke="#000000" points="-0.554 -0.174 -0.554 0.174 -0.718 0.162 -0.718 -0.162"/>
    <polygon id="left-3" fill="blue" stroke="#000000" points="-0.554 0.195 -0.554 0.543 -0.718 0.507 -0.718 0.183"/>
  </g>
  <g id="back-row" style="opacity: 1; stroke-opacity: 1; stroke-width: 0.02; stroke-linejoin: round;" transform="matrix(348.189423, 0, 0, 348.189423, 250, 250)">
    <polygon id="back-1" fill="red" stroke="#000000" points="-0.195 -0.554 -0.543 -0.554 -0.507 -0.718 -0.183 -0.718"/>
    <polygon id="back-2" fill="green" stroke="#000000" points="0.174 -0.554 -0.174 -0.554 -0.162 -0.718 0.162 -0.718"/>
    <polygon id="back-3" fill="yellow" stroke="#000000" points="0.544 -0.554 0.196 -0.554 0.184 -0.718 0.508 -0.718"/>
  </g>
  <g id="right-column" style="opacity: 1; stroke-opacity: 1; stroke-width: 0.02; stroke-linejoin: round;" transform="matrix(348.189423, 0, 0, 348.189423, 250, 250)">
    <polygon id="right-1" fill="orange" stroke="#000000" points="0.554 -0.195 0.554 -0.543 0.718 -0.507 0.718 -0.183"/>
    <polygon id="right-2" fill="red" stroke="#000000" points="0.554 0.174 0.554 -0.174 0.718 -0.162 0.718 0.162"/>
    <polygon id="right-3" fill="yellow" stroke="#000000" points="0.554 0.544 0.554 0.196 0.718 0.184 0.718 0.508"/>
  </g>
  <text id="title" width="100%" font-family="sans-serif" style="font-size: 2.2em; font-variant: small-caps; font-weight: 700; text-anchor: middle;" x="260" y="540">Y-Perm</text>
  <text id="sequence" width="100%" font-family="sans-serif" style="font-size: 1.5em; font-variant: small-caps; text-anchor: middle;" x="260" y="580">F (R U' R' U') (R U R' F') (R U R' U') (R' F R F')</text>
</svg>